<?xml version="1.0" standalone="no"?>
<!DOCTYPE svg PUBLIC "-//W3C//DTD SVG 20010904//EN"
 "http://www.w3.org/TR/2001/REC-SVG-20010904/DTD/svg10.dtd">
<svg version="1.0" xmlns="http://www.w3.org/2000/svg"
 width="800.000000pt" height="800.000000pt" viewBox="0 0 800.000000 800.000000"
 preserveAspectRatio="xMidYMid meet">
<metadata>
Created by potrace 1.14, written by Peter Selinger 2001-2017
</metadata>
<g transform="translate(0.000000,800.000000) scale(0.100000,-0.100000)"
fill="#000000" stroke="none">
<path d="M3830 7835 c-91 -51 -169 -98 -175 -102 -5 -5 -23 -16 -40 -24 -16
-9 -46 -25 -65 -36 -48 -28 -416 -241 -460 -266 -19 -11 -48 -27 -65 -35 -16
-9 -32 -18 -35 -22 -5 -7 -84 -52 -135 -78 -16 -8 -41 -23 -55 -32 -14 -9 -56
-34 -95 -55 -38 -21 -72 -41 -75 -44 -3 -3 -18 -13 -35 -21 -16 -8 -54 -29
-83 -47 -29 -18 -57 -33 -62 -33 -6 0 -10 -4 -10 -10 0 -5 -9 -10 -19 -10 -11
0 -21 -4 -23 -8 -3 -8 -69 -47 -133 -80 -16 -9 -32 -18 -35 -21 -3 -3 -18 -13
-35 -21 -16 -8 -44 -25 -62 -38 -17 -13 -35 -24 -40 -24 -4 -1 -25 -12 -45
-24 -21 -13 -40 -24 -42 -24 -2 0 -40 -21 -83 -46 -43 -26 -99 -59 -124 -73
-94 -54 -335 -192 -349 -201 -39 -24 -243 -140 -247 -140 -2 0 -16 -8 -31 -19
-28 -19 -326 -192 -422 -244 -30 -17 -56 -34 -58 -39 -2 -4 -9 -8 -16 -8 -6 0
-27 -11 -46 -24 l-35 -24 0 -1962 -1 -1963 41 -25 c22 -15 43 -25 48 -24 4 1
7 -3 7 -8 0 -6 4 -10 10 -10 5 0 50 -25 100 -55 49 -30 90 -51 90 -47 0 4 4 2
8 -4 4 -6 25 -21 47 -33 22 -12 58 -32 80 -45 41 -24 58 -35 130 -75 75 -43
370 -214 444 -258 40 -23 77 -43 81 -43 4 0 13 -7 20 -15 7 -9 15 -13 17 -11
3 3 10 0 17 -5 15 -13 110 -69 161 -94 22 -11 45 -24 51 -30 6 -5 28 -19 49
-30 22 -11 44 -24 50 -28 5 -4 46 -28 90 -54 44 -25 103 -58 130 -74 28 -17
61 -35 75 -42 14 -6 27 -14 30 -17 8 -8 169 -100 175 -100 4 0 25 -13 48 -28
23 -16 49 -32 57 -35 8 -4 31 -17 50 -28 19 -12 55 -33 80 -47 25 -14 97 -55
160 -92 63 -37 132 -77 153 -89 75 -43 113 -64 142 -82 17 -11 36 -22 44 -26
8 -3 63 -35 123 -70 60 -35 113 -63 119 -63 5 0 9 -4 9 -9 0 -5 8 -11 18 -14
9 -3 40 -20 67 -36 28 -17 68 -40 90 -53 22 -12 49 -28 60 -35 11 -7 32 -18
48 -25 15 -7 27 -16 27 -20 0 -4 5 -8 10 -8 6 0 40 -18 76 -40 36 -22 68 -40
71 -40 4 0 96 51 203 113 19 11 55 31 80 45 25 14 56 32 70 41 40 25 62 38
115 67 28 15 53 32 57 38 4 6 8 7 8 3 0 -5 12 0 28 11 15 10 70 43 122 73 52
29 109 62 125 71 17 10 41 24 55 30 14 7 27 15 30 18 3 3 79 48 170 99 91 52
173 101 183 109 9 8 17 12 17 8 0 -4 13 2 29 13 16 12 34 21 40 21 6 0 11 3
11 8 0 4 21 18 48 32 26 13 65 36 87 49 22 14 60 36 84 49 24 13 56 32 72 41
15 9 58 34 96 55 158 90 429 247 443 256 15 9 72 42 165 95 28 15 82 48 122
72 39 23 74 43 78 43 3 0 22 11 43 24 58 38 124 76 155 89 15 6 27 15 27 19 0
4 5 8 10 8 6 0 36 16 66 35 30 19 56 35 58 35 6 0 491 282 501 291 14 14 15
3919 1 3938 -6 7 -19 17 -31 22 -11 5 -27 13 -35 18 -49 31 -241 141 -247 141
-3 0 -14 6 -22 14 -9 7 -36 24 -61 37 -25 13 -47 27 -50 30 -3 3 -18 12 -35
21 -36 18 -84 45 -193 109 -45 27 -87 49 -92 49 -6 0 -10 5 -10 10 0 6 -4 10
-9 10 -9 0 -106 53 -161 88 -14 9 -27 17 -30 17 -3 0 -24 13 -47 28 -24 15
-45 27 -47 27 -3 0 -26 13 -53 29 -73 44 -336 196 -353 204 -8 4 -28 16 -45
26 -16 10 -133 78 -260 151 -126 73 -243 140 -260 150 -157 91 -207 120 -211
120 -3 0 -10 5 -17 10 -7 6 -64 40 -127 76 -63 37 -202 116 -308 178 -106 61
-209 120 -230 132 -20 11 -92 53 -159 92 -67 39 -124 68 -127 65 -3 -4 -6 -1
-6 5 0 7 -15 19 -32 27 -18 8 -55 28 -83 45 -27 16 -52 29 -55 29 -3 1 -79
-42 -170 -94z"/>
</g>
</svg>
