<svg xmlns="http://www.w3.org/2000/svg" version="1.1" xmlns:xlink="http://www.w3.org/1999/xlink" xmlns:svgjs="http://svgjs.com/svgjs" width="121" height="100"><svg width="121" height="100" viewBox="0 0 121 100" fill="none" xmlns="http://www.w3.org/2000/svg">
<path d="M70.8485 30.6308C64.0415 24.8689 66.3109 42.7546 54.336 42.9955C42.3611 43.2365 41.479 23.7355 36.5629 30.6308C31.6468 37.5262 36.941 78.6467 36.5629 93.1713C36.1847 107.696 13.2575 95.6029 0.764602 84.2885V73.125C0.764602 73.125 24.8402 93.1712 24.8402 78.6467L24.0839 23.7355C24.0839 9.21089 0.00830078 29.2572 0.00830078 29.2572V17.4266C0.00830078 13.8263 32.4031 -5.12677 36.5629 4.88956C40.7227 14.9059 39.4621 23.7355 54.336 25.2817C68.2015 23.7355 59.378 15.4498 71.1006 4.88959C81.0587 -2.44702 104.378 6.14202 104.378 20.3068C104.378 33.2706 96.8149 36.4452 84.8403 40.3531C96.941 42.9955 119 83.3912 119 93.1713C119 102.951 106.773 99.9504 104.378 93.1713C101.983 86.3921 90.7646 53.4381 86.8571 53.7973C82.9495 54.1565 84.2197 79.3867 85.7226 93.1713C85.7226 102.117 71.1006 101.637 71.1006 93.1713C71.1006 84.7056 77.6554 36.3927 70.8485 30.6308Z" fill="#10B981" stroke="#10B981" stroke-width="0.445379" stroke-linejoin="round"></path>
<path d="M71.8402 28.7915C65.0333 23.0296 67.3026 40.9152 55.3277 41.1562C43.3528 41.3971 42.4707 21.8961 37.5546 28.7915C32.6385 35.6868 37.9328 76.8073 37.5546 91.3319C37.1764 105.856 14.2492 93.7636 1.7563 82.4491V71.2856C1.7563 71.2856 25.8319 91.3319 25.8319 76.8073L25.0756 21.8961C25.0756 7.37154 1 27.4178 1 27.4178V15.5872C1 11.987 33.3948 -6.96612 37.5546 3.05021C41.7144 13.0665 40.4538 21.8961 55.3277 23.4423C69.1932 21.8961 64.6552 15.0653 72.0923 4.48763C82.0504 -2.84898 105.37 4.30267 105.37 18.4674C105.37 31.4312 97.8066 34.6058 85.832 38.5138C97.9327 41.1562 119.992 81.5518 119.992 91.3319C119.992 101.112 107.764 98.111 105.37 91.3319C102.975 84.5528 91.7564 51.5988 87.8488 51.958C83.9412 52.3172 85.2115 77.5473 86.7143 91.3319C86.7143 100.278 72.0923 99.7976 72.0923 91.3319C72.0923 82.8662 78.6471 34.5533 71.8402 28.7915Z" fill="#075985" stroke="#075985" stroke-width="0.445379" stroke-linejoin="round"></path>
</svg><style>@media (prefers-color-scheme: light) { :root { filter: none; } }
</style></svg>