<svg version="1.0" xmlns="http://www.w3.org/2000/svg" width="85.333" height="85.333" viewBox="0 0 64 64"><path d="M24 2.3C10.1 6.2 1.6 17.5 1.6 32c0 8.8 2.2 14.5 7.9 20.8 11.7 13 33.3 13 45 0 5.7-6.3 7.9-12 7.9-20.8s-2.2-14.5-7.9-20.8C47.3 3.2 34.2-.6 24 2.3zm7 7.7c0 6.6-.2 6.7-6.8 5.4-3.1-.6-3.1-.6-1.6-3.7C24.5 8.2 28.4 4 30 4c.6 0 1 2.5 1 6zm6.4-3.6c1.3 1.2 3.1 3.7 4 5.3 1.5 3.1 1.5 3.1-1.6 3.7-6.6 1.3-6.8 1.2-6.8-5.4 0-6.6.8-7.3 4.4-3.6zM21.3 9.6c-2.3 4-2.8 4.5-5.2 3.9-3.4-.9-3.6-1.2-2.1-3 1.3-1.6 7.7-5.4 9.2-5.5.4 0-.5 2.1-1.9 4.6zm23.6-2.7c3.7 1.9 6.8 4.8 6 5.5-.2.3-1.6.7-3 1.1-2.4.6-2.9.1-5.2-3.9C41.3 7.1 40.4 5 40.6 5c.3 0 2.2.9 4.3 1.9zm-30.4 8.7c2.6 1 3.5 1.9 3.1 3-.3.9-.9 4-1.2 7l-.7 5.4H9.9C4.1 31 4 30.9 4 28.2 4.1 24.7 8.9 14 10.5 14c.1 0 1.9.7 4 1.6zM57.3 20c1.5 2.9 2.7 6.6 2.7 8.2 0 2.8-.1 2.8-5.9 2.8h-5.8l-.7-5.4c-.3-3-.9-6.1-1.2-7-.4-1.1.4-2 2.8-3 1.8-.8 3.8-1.3 4.3-1.2.6.1 2.2 2.6 3.8 5.6zm-26.5 4.7.3 6.3H19v-4.4c0-2.5.4-5.5.9-6.8.8-2.2 1.3-2.4 5.8-1.9l4.8.6.3 6.2zm14 .3.4 6H32.9l.3-6.3.3-6.2L38 18c2.5-.3 4.9-.2 5.4.2s1.2 3.5 1.4 6.8zM16.4 38.4c.3 3 .9 6.1 1.2 7 .4 1-.5 2-3.1 3-2.1.9-4.2 1.3-4.7 1C8.1 48.3 4 38.7 4 35.7c0-2.6.1-2.7 5.9-2.7h5.8l.7 5.4zm14.4.8-.3 6.3-4.8.6c-4.5.5-5 .3-5.8-1.9-.5-1.3-.9-4.3-.9-6.8V33h12.1l-.3 6.2zM45 37.4c0 2.5-.4 5.5-.9 6.8-.8 2.2-1.3 2.4-5.8 1.9l-4.8-.6-.3-6.3-.3-6.2H45v4.4zm15-1.7c0 3-4.1 12.6-5.8 13.7-1.6 1-8.4-2.3-7.9-3.8.3-.7.8-3.8 1.2-6.9l.7-5.7h5.9c5.8 0 5.9.1 5.9 2.7zM31 54c0 3.3-.2 6-.4 6-2 0-4.3-2-6.8-5.9l-2.9-4.6 2.3-.7c1.3-.3 3.5-.6 5.1-.7C31 48 31 48.1 31 54zm8.8-5.4c3.1.6 3.1.6 1.6 3.7-1.9 3.5-5.8 7.7-7.4 7.7-.6 0-1-2.5-1-6 0-6.6.2-6.7 6.8-5.4zm-18.5 5.9c1.4 2.5 2.3 4.5 2.1 4.5-1 0-7-3.3-8.6-4.8-2.8-2.4-2-3.6 2.9-4.1.6 0 2.3 1.9 3.6 4.4zm29.6-2.9c1.1 1-7.8 7.4-10.3 7.4-.2 0 .7-2.1 2.1-4.6 2.3-4 2.8-4.5 5.2-3.9 1.4.4 2.8.8 3 1.1z"/></svg>