<svg width="48" height="50" viewBox="0 0 48 50" fill="none" xmlns="http://www.w3.org/2000/svg">
<path d="M24 1L44.7846 13V37L24 49L3.21539 37V13L24 1Z" fill="#075985" stroke="#075985"/>
<path d="M24 7L39.5885 16V34L24 43L8.41154 34V16L24 7Z" fill="white" stroke="#075985"/>
<path d="M17.4 32.2C15.92 32.2 14.7467 31.7933 13.88 30.98C13.0267 30.1667 12.6 29.0667 12.6 27.68H15.1C15.1 28.4 15.3 28.9733 15.7 29.4C16.1133 29.8133 16.68 30.02 17.4 30.02C18.1067 30.02 18.6667 29.8133 19.08 29.4C19.4933 28.9867 19.7 28.42 19.7 27.7V17.4H22.2V27.7C22.2 29.0867 21.7667 30.1867 20.9 31C20.0467 31.8 18.88 32.2 17.4 32.2ZM25.0722 32V17.4H28.3322L29.9722 23.68L31.6322 17.4H34.9122V32H32.5722V25.86C32.5722 25.02 32.5922 24.1533 32.6322 23.26C32.6855 22.3533 32.7455 21.48 32.8122 20.64C32.8789 19.7867 32.9522 19.0133 33.0322 18.32L30.9722 25.66H28.9122L26.9322 18.5C27.0522 19.42 27.1589 20.52 27.2522 21.8C27.3589 23.0667 27.4122 24.42 27.4122 25.86V32H25.0722Z" fill="#075985"/>
</svg>
