<svg width="123" height="100" viewBox="0 0 123 100" fill="none" xmlns="http://www.w3.org/2000/svg">
<g clip-path="url(#clip0_4_2)">
<rect width="123" height="100" fill="white"/>
<path d="M70.8402 30.7915C64.0333 25.0296 66.3026 42.9152 54.3277 43.1562C42.3528 43.3971 41.4707 23.8961 36.5546 30.7915C31.6385 37.6868 36.9328 78.8073 36.5546 93.3319C36.1764 107.856 13.2492 95.7636 0.756302 84.4491V73.2856C0.756302 73.2856 24.8319 93.3319 24.8319 78.8073L24.0756 23.8961C24.0756 9.37154 0 29.4178 0 29.4178V17.5872C0 13.987 32.3948 -4.96612 36.5546 5.05021C40.7144 15.0665 39.4538 23.8961 54.3277 25.4423C68.1932 23.8961 63.6552 17.0653 71.0923 6.48763C81.0504 -0.848979 104.37 6.30267 104.37 20.4674C104.37 33.4312 96.8066 36.6058 84.832 40.5138C96.9327 43.1562 118.992 83.5518 118.992 93.3319C118.992 103.112 106.764 100.111 104.37 93.3319C101.975 86.5528 90.7564 53.5988 86.8488 53.958C82.9412 54.3172 84.2115 79.5473 85.7143 93.3319C85.7143 102.278 71.0923 101.798 71.0923 93.3319C71.0923 84.8662 77.6471 36.5533 70.8402 30.7915Z" fill="#075985" stroke="#075985" stroke-width="0.445379" stroke-linejoin="round"/>
<path d="M71.8485 28.6308C65.0416 22.8689 67.3109 40.7546 55.336 40.9955C43.3611 41.2365 42.479 21.7355 37.5629 28.6308C32.6468 35.5262 37.9411 76.6467 37.5629 91.1713C37.1847 105.696 14.2575 93.6029 1.7646 82.2885V71.125C1.7646 71.125 25.8402 91.1713 25.8402 76.6467L25.0839 21.7355C25.0839 7.21089 1.0083 27.2572 1.0083 27.2572V15.4266C1.0083 11.8263 33.4031 -7.12677 37.5629 2.88956C41.7227 12.9059 40.4621 21.7355 55.336 23.2817C69.2015 21.7355 60.378 13.4498 72.1006 2.88959C82.0587 -4.44702 105.378 4.14202 105.378 18.3068C105.378 31.2706 97.8149 34.4452 85.8403 38.3531C97.941 40.9955 120 81.3912 120 91.1713C120 100.951 107.773 97.9504 105.378 91.1713C102.983 84.3921 91.7647 51.4381 87.8571 51.7973C83.9495 52.1565 85.2198 77.3867 86.7226 91.1713C86.7226 100.117 72.1006 99.6369 72.1006 91.1713C72.1006 82.7056 78.6554 34.3927 71.8485 28.6308Z" fill="#10B981" stroke="#10B981" stroke-width="0.445379" stroke-linejoin="round"/>
</g>
<defs>
<clipPath id="clip0_4_2">
<rect width="123" height="100" fill="white"/>
</clipPath>
</defs>
</svg>
